<?xml version="1.0" encoding="UTF-8"?>
<svg id="Layer_1" xmlns="http://www.w3.org/2000/svg" version="1.1" viewBox="0 0 612 6233.04">
  <!-- Generator: Adobe Illustrator 29.1.0, SVG Export Plug-In . SVG Version: 2.1.0 Build 142)  -->
  <defs>
    <style>
      .st0 {
        fill: #fff;
      }
    </style>
  </defs>
  <rect width="612" height="6233.04"/>
  <circle class="st0" cx="166.19" cy="20.81" r="1.55"/>
  <circle class="st0" cx="252.5" cy="228.08" r="1.55"/>
  <circle class="st0" cx="393.85" cy="701.9" r="1.55"/>
  <circle class="st0" cx="82.71" cy="382.61" r="1.55"/>
  <circle class="st0" cx="568.56" cy="137.34" r="1.55"/>
  <circle class="st0" cx="487.87" cy="618.26" r="1.55"/>
  <circle class="st0" cx="54.11" cy="115.35" r="1.55"/>
  <circle class="st0" cx="141.3" cy="38.04" r=".86"/>
  <circle class="st0" cx="379.03" cy="22.36" r=".86"/>
  <circle class="st0" cx="148.08" cy="69.57" r=".6"/>
  <circle class="st0" cx="88.04" cy="77.68" r=".6"/>
  <circle class="st0" cx="149.46" cy="169.76" r=".86"/>
  <circle class="st0" cx="401.48" cy="330.45" r=".86"/>
  <circle class="st0" cx="52.56" cy="358.92" r=".86"/>
  <circle class="st0" cx="51.7" cy="612.29" r=".86"/>
  <circle class="st0" cx="196.86" cy="207.54" r=".86"/>
  <circle class="st0" cx="523.09" cy="208.4" r=".86"/>
  <circle class="st0" cx="254.05" cy="408.13" r=".86"/>
  <circle class="st0" cx="279.57" cy="470.69" r=".86"/>
  <circle class="st0" cx="446.05" cy="190.69" r=".86"/>
  <circle class="st0" cx="530.61" cy="400.72" r=".86"/>
  <circle class="st0" cx="586.21" cy="425" r=".86"/>
  <circle class="st0" cx="216.87" cy="108.33" r=".86"/>
  <circle class="st0" cx="474.09" cy="69.57" r=".86"/>
  <circle class="st0" cx="453.55" cy="90.46" r=".86"/>
  <circle class="st0" cx="48.85" cy="20.81" r=".86"/>
  <circle class="st0" cx="35.63" cy="100.99" r=".86"/>
  <circle class="st0" cx="182.99" cy="27.79" r=".86"/>
  <circle class="st0" cx="286.9" cy="50.25" r=".86"/>
  <circle class="st0" cx="422.45" cy="42.34" r=".86"/>
  <circle class="st0" cx="75.65" cy="168.09" r=".3"/>
  <circle class="st0" cx="499.33" cy="425.3" r=".3"/>
  <circle class="st0" cx="576.28" cy="285.92" r=".3"/>
  <circle class="st0" cx="447.11" cy="558.7" r=".3"/>
  <circle class="st0" cx="459.91" cy="563.09" r=".3"/>
  <circle class="st0" cx="23.45" cy="48.79" r=".3"/>
  <circle class="st0" cx="19.05" cy="219.56" r=".3"/>
  <circle class="st0" cx="84.47" cy="8.32" r=".3"/>
  <circle class="st0" cx="140.44" cy="181.72" r=".3"/>
  <circle class="st0" cx="35.63" cy="223.64" r=".3"/>
  <circle class="st0" cx="104.12" cy="49.39" r=".3"/>
  <circle class="st0" cx="247.73" cy="106.14" r=".3"/>
  <circle class="st0" cx="371.1" cy="142.41" r=".3"/>
  <circle class="st0" cx="474.95" cy="14.49" r=".3"/>
  <circle class="st0" cx="562.39" cy="22.36" r=".3"/>
  <circle class="st0" cx="590.27" cy="70.43" r=".3"/>
  <circle class="st0" cx="357.91" cy="28.65" r=".3"/>
  <circle class="st0" cx="446.81" cy="48.49" r=".3"/>
  <circle class="st0" cx="241.14" cy="37.18" r=".3"/>
  <circle class="st0" cx="224.12" cy="182.02" r=".3"/>
  <circle class="st0" cx="200.11" cy="270.92" r=".3"/>
  <circle class="st0" cx="211.07" cy="339.75" r=".3"/>
  <circle class="st0" cx="306" cy="199.61" r=".3"/>
  <circle class="st0" cx="305.7" cy="240.65" r=".3"/>
  <circle class="st0" cx="343.29" cy="206.68" r=".3"/>
  <circle class="st0" cx="371.4" cy="296.24" r=".3"/>
  <circle class="st0" cx="543.03" cy="371.16" r=".3"/>
  <circle class="st0" cx="609.04" cy="451.41" r=".3"/>
  <circle class="st0" cx="190.09" cy="419.77" r=".3"/>
  <circle class="st0" cx="107.01" cy="296.54" r=".3"/>
  <circle class="st0" cx="237.43" cy="558.4" r=".3"/>
  <circle class="st0" cx="475.25" cy="358.06" r=".3"/>
  <circle class="st0" cx="556.41" cy="506.37" r=".3"/>
  <circle class="st0" cx="483.02" cy="476.83" r=".3"/>
  <circle class="st0" cx="543.33" cy="488.54" r=".3"/>
  <circle class="st0" cx="6.47" cy="330.15" r=".3"/>
  <circle class="st0" cx="510.69" cy="603.73" r=".3"/>
  <circle class="st0" cx="316.07" cy="551.39" r=".3"/>
  <circle class="st0" cx="489.42" cy="306.67" r=".3"/>
  <circle class="st0" cx="354.09" cy="399.86" r=".3"/>
  <circle class="st0" cx="84.26" cy="431.69" r=".3"/>
  <circle class="st0" cx="54.11" cy="551.99" r=".3"/>
  <circle class="st0" cx="83.96" cy="592.62" r=".3"/>
  <circle class="st0" cx="353.79" cy="470.99" r=".3"/>
  <circle class="st0" cx="415.72" cy="531.03" r=".3"/>
  <circle class="st0" cx="383.82" cy="454.45" r=".3"/>
  <circle class="st0" cx="295.9" cy="319.54" r=".3"/>
  <circle class="st0" cx="347.38" cy="416.26" r=".3"/>
  <circle class="st0" cx="287.88" cy="309.32" r=".3"/>
  <circle class="st0" cx="107.31" cy="520.4" r=".3"/>
  <circle class="st0" cx="140.44" cy="500.22" r=".3"/>
  <circle class="st0" cx="429.37" cy="611.99" r=".3"/>
  <circle class="st0" cx="148.4" cy="563.39" r=".3"/>
  <circle class="st0" cx="10.83" cy="499.92" r=".3"/>
  <circle class="st0" cx="548.31" cy="127.74" r=".3"/>
  <circle class="st0" cx="488.17" cy="170.62" r=".3"/>
  <circle class="st0" cx="164.64" cy="214.28" r=".3"/>
  <circle class="st0" cx="93.35" cy="235.13" r=".3"/>
  <circle class="st0" cx="131.61" cy="260.29" r=".3"/>
  <circle class="st0" cx="148.08" cy="359.78" r=".3"/>
  <circle class="st0" cx="429.32" cy="1330.46" r="1.55"/>
  <circle class="st0" cx="343.01" cy="1123.19" r="1.55"/>
  <circle class="st0" cx="201.66" cy="649.37" r="1.55"/>
  <circle class="st0" cx="512.8" cy="968.66" r="1.55"/>
  <circle class="st0" cx="26.95" cy="1213.93" r="1.55"/>
  <circle class="st0" cx="107.64" cy="733.01" r="1.55"/>
  <circle class="st0" cx="541.4" cy="1235.92" r="1.55"/>
  <circle class="st0" cx="454.22" cy="1313.22" r=".86"/>
  <circle class="st0" cx="216.48" cy="1328.91" r=".86"/>
  <circle class="st0" cx="237.13" cy="671.67" r=".86"/>
  <circle class="st0" cx="167.73" cy="319.24" r=".86"/>
  <circle class="st0" cx="447.43" cy="1281.7" r=".6"/>
  <circle class="st0" cx="507.47" cy="1273.59" r=".6"/>
  <circle class="st0" cx="446.05" cy="1181.51" r=".86"/>
  <circle class="st0" cx="194.03" cy="1020.82" r=".86"/>
  <circle class="st0" cx="542.95" cy="992.35" r=".86"/>
  <circle class="st0" cx="543.81" cy="738.98" r=".86"/>
  <circle class="st0" cx="398.65" cy="1143.73" r=".86"/>
  <circle class="st0" cx="72.42" cy="1142.87" r=".86"/>
  <circle class="st0" cx="341.46" cy="943.14" r=".86"/>
  <circle class="st0" cx="323.9" cy="939.04" r=".86"/>
  <circle class="st0" cx="64.9" cy="950.55" r=".86"/>
  <circle class="st0" cx="9.3" cy="926.27" r=".86"/>
  <circle class="st0" cx="378.65" cy="1242.94" r=".86"/>
  <circle class="st0" cx="121.42" cy="1281.7" r=".86"/>
  <circle class="st0" cx="141.96" cy="1260.81" r=".86"/>
  <circle class="st0" cx="546.66" cy="1330.46" r=".86"/>
  <circle class="st0" cx="559.89" cy="1250.28" r=".86"/>
  <circle class="st0" cx="412.52" cy="1323.48" r=".86"/>
  <circle class="st0" cx="308.62" cy="1301.02" r=".86"/>
  <circle class="st0" cx="173.06" cy="1308.93" r=".86"/>
  <circle class="st0" cx="519.86" cy="1183.18" r=".3"/>
  <circle class="st0" cx="96.18" cy="925.97" r=".3"/>
  <circle class="st0" cx="19.24" cy="1065.35" r=".3"/>
  <circle class="st0" cx="148.4" cy="792.57" r=".3"/>
  <circle class="st0" cx="135.6" cy="788.18" r=".3"/>
  <circle class="st0" cx="572.07" cy="1302.48" r=".3"/>
  <circle class="st0" cx="576.46" cy="1131.71" r=".3"/>
  <circle class="st0" cx="511.04" cy="1342.94" r=".3"/>
  <circle class="st0" cx="455.08" cy="1169.55" r=".3"/>
  <circle class="st0" cx="559.89" cy="1127.63" r=".3"/>
  <circle class="st0" cx="491.39" cy="1301.88" r=".3"/>
  <circle class="st0" cx="347.78" cy="1245.13" r=".3"/>
  <circle class="st0" cx="224.41" cy="1208.86" r=".3"/>
  <circle class="st0" cx="120.56" cy="1336.78" r=".3"/>
  <circle class="st0" cx="33.12" cy="1328.91" r=".3"/>
  <circle class="st0" cx="5.24" cy="1280.84" r=".3"/>
  <circle class="st0" cx="237.61" cy="1322.62" r=".3"/>
  <circle class="st0" cx="148.7" cy="1302.78" r=".3"/>
  <circle class="st0" cx="354.37" cy="1314.08" r=".3"/>
  <circle class="st0" cx="371.39" cy="1169.25" r=".3"/>
  <circle class="st0" cx="247.43" cy="817.94" r=".3"/>
  <circle class="st0" cx="371.09" cy="1021.68" r=".3"/>
  <circle class="st0" cx="289.51" cy="1151.66" r=".3"/>
  <circle class="st0" cx="289.81" cy="1110.62" r=".3"/>
  <circle class="st0" cx="252.23" cy="1144.59" r=".3"/>
  <circle class="st0" cx="224.11" cy="1055.03" r=".3"/>
  <circle class="st0" cx="52.48" cy="980.11" r=".3"/>
  <circle class="st0" cx="-13.53" cy="899.86" r=".3"/>
  <circle class="st0" cx="405.42" cy="931.5" r=".3"/>
  <circle class="st0" cx="358.09" cy="792.87" r=".3"/>
  <circle class="st0" cx="39.1" cy="844.9" r=".3"/>
  <circle class="st0" cx="112.49" cy="874.44" r=".3"/>
  <circle class="st0" cx="52.18" cy="862.72" r=".3"/>
  <circle class="st0" cx="589.04" cy="1021.12" r=".3"/>
  <circle class="st0" cx="84.82" cy="747.53" r=".3"/>
  <circle class="st0" cx="279.45" cy="799.88" r=".3"/>
  <circle class="st0" cx="106.1" cy="1044.6" r=".3"/>
  <circle class="st0" cx="241.42" cy="951.41" r=".3"/>
  <circle class="st0" cx="511.26" cy="919.58" r=".3"/>
  <circle class="st0" cx="541.4" cy="799.28" r=".3"/>
  <circle class="st0" cx="511.56" cy="758.65" r=".3"/>
  <circle class="st0" cx="241.72" cy="880.28" r=".3"/>
  <circle class="st0" cx="299.61" cy="1031.73" r=".3"/>
  <circle class="st0" cx="488.2" cy="830.86" r=".3"/>
  <circle class="st0" cx="455.08" cy="851.05" r=".3"/>
  <circle class="st0" cx="166.14" cy="739.28" r=".3"/>
  <circle class="st0" cx="223.81" cy="624.77" r=".3"/>
  <circle class="st0" cx="584.68" cy="851.35" r=".3"/>
  <circle class="st0" cx="47.2" cy="1223.53" r=".3"/>
  <circle class="st0" cx="107.34" cy="1180.65" r=".3"/>
  <circle class="st0" cx="430.87" cy="1136.99" r=".3"/>
  <circle class="st0" cx="502.16" cy="1116.13" r=".3"/>
  <circle class="st0" cx="463.91" cy="1090.97" r=".3"/>
  <circle class="st0" cx="447.43" cy="991.49" r=".3"/>
  <circle class="st0" cx="166.19" cy="1355.43" r="1.55"/>
  <circle class="st0" cx="252.5" cy="1562.7" r="1.55"/>
  <circle class="st0" cx="393.85" cy="2036.52" r="1.55"/>
  <circle class="st0" cx="82.71" cy="1717.23" r="1.55"/>
  <circle class="st0" cx="568.56" cy="1471.96" r="1.55"/>
  <circle class="st0" cx="487.87" cy="1952.88" r="1.55"/>
  <circle class="st0" cx="54.11" cy="1449.97" r="1.55"/>
  <circle class="st0" cx="141.3" cy="1372.67" r=".86"/>
  <circle class="st0" cx="379.03" cy="1356.98" r=".86"/>
  <circle class="st0" cx="148.08" cy="1404.19" r=".6"/>
  <circle class="st0" cx="88.04" cy="1412.3" r=".6"/>
  <circle class="st0" cx="149.46" cy="1504.38" r=".86"/>
  <circle class="st0" cx="401.48" cy="1665.07" r=".86"/>
  <circle class="st0" cx="52.56" cy="1693.54" r=".86"/>
  <circle class="st0" cx="51.7" cy="1946.91" r=".86"/>
  <circle class="st0" cx="196.86" cy="1542.16" r=".86"/>
  <circle class="st0" cx="523.09" cy="1543.02" r=".86"/>
  <circle class="st0" cx="254.05" cy="1742.75" r=".86"/>
  <circle class="st0" cx="271.62" cy="1746.85" r=".86"/>
  <circle class="st0" cx="530.61" cy="1735.34" r=".86"/>
  <circle class="st0" cx="586.21" cy="1759.62" r=".86"/>
  <circle class="st0" cx="216.87" cy="1442.95" r=".86"/>
  <circle class="st0" cx="474.09" cy="1404.19" r=".86"/>
  <circle class="st0" cx="453.55" cy="1425.08" r=".86"/>
  <circle class="st0" cx="474.09" cy="1594.61" r=".86"/>
  <circle class="st0" cx="48.85" cy="1355.43" r=".86"/>
  <circle class="st0" cx="35.63" cy="1435.61" r=".86"/>
  <circle class="st0" cx="182.99" cy="1362.41" r=".86"/>
  <circle class="st0" cx="422.45" cy="716.25" r=".86"/>
  <circle class="st0" cx="286.9" cy="1384.87" r=".86"/>
  <circle class="st0" cx="422.45" cy="1376.96" r=".86"/>
  <circle class="st0" cx="75.65" cy="1502.71" r=".3"/>
  <circle class="st0" cx="499.33" cy="1759.92" r=".3"/>
  <circle class="st0" cx="576.28" cy="1620.54" r=".3"/>
  <circle class="st0" cx="447.11" cy="1893.32" r=".3"/>
  <circle class="st0" cx="459.91" cy="1897.71" r=".3"/>
  <circle class="st0" cx="23.45" cy="1383.41" r=".3"/>
  <circle class="st0" cx="19.05" cy="1554.18" r=".3"/>
  <circle class="st0" cx="84.47" cy="1342.94" r=".3"/>
  <circle class="st0" cx="140.44" cy="1516.34" r=".3"/>
  <circle class="st0" cx="35.63" cy="1558.26" r=".3"/>
  <circle class="st0" cx="104.12" cy="1384.01" r=".3"/>
  <circle class="st0" cx="247.73" cy="1440.76" r=".3"/>
  <circle class="st0" cx="371.1" cy="1477.03" r=".3"/>
  <circle class="st0" cx="474.95" cy="1349.11" r=".3"/>
  <circle class="st0" cx="562.39" cy="1356.98" r=".3"/>
  <circle class="st0" cx="590.27" cy="1405.05" r=".3"/>
  <circle class="st0" cx="357.91" cy="1363.27" r=".3"/>
  <circle class="st0" cx="446.81" cy="1383.11" r=".3"/>
  <circle class="st0" cx="241.14" cy="1371.8" r=".3"/>
  <circle class="st0" cx="224.12" cy="1516.64" r=".3"/>
  <circle class="st0" cx="224.42" cy="1664.21" r=".3"/>
  <circle class="st0" cx="306" cy="1534.23" r=".3"/>
  <circle class="st0" cx="305.7" cy="1575.27" r=".3"/>
  <circle class="st0" cx="343.29" cy="1541.3" r=".3"/>
  <circle class="st0" cx="371.4" cy="1630.86" r=".3"/>
  <circle class="st0" cx="543.03" cy="1705.78" r=".3"/>
  <circle class="st0" cx="609.04" cy="1786.03" r=".3"/>
  <circle class="st0" cx="190.09" cy="1754.39" r=".3"/>
  <circle class="st0" cx="237.43" cy="1893.02" r=".3"/>
  <circle class="st0" cx="556.41" cy="1840.99" r=".3"/>
  <circle class="st0" cx="483.02" cy="1811.45" r=".3"/>
  <circle class="st0" cx="543.33" cy="1823.16" r=".3"/>
  <circle class="st0" cx="6.47" cy="1664.77" r=".3"/>
  <circle class="st0" cx="510.69" cy="1938.35" r=".3"/>
  <circle class="st0" cx="316.07" cy="1886.01" r=".3"/>
  <circle class="st0" cx="489.42" cy="1641.29" r=".3"/>
  <circle class="st0" cx="354.09" cy="1734.48" r=".3"/>
  <circle class="st0" cx="84.26" cy="1766.31" r=".3"/>
  <circle class="st0" cx="54.11" cy="1886.61" r=".3"/>
  <circle class="st0" cx="83.96" cy="1927.24" r=".3"/>
  <circle class="st0" cx="353.79" cy="1805.61" r=".3"/>
  <circle class="st0" cx="295.9" cy="1654.16" r=".3"/>
  <circle class="st0" cx="107.31" cy="1855.03" r=".3"/>
  <circle class="st0" cx="140.44" cy="1834.84" r=".3"/>
  <circle class="st0" cx="429.37" cy="1946.61" r=".3"/>
  <circle class="st0" cx="10.83" cy="1834.54" r=".3"/>
  <circle class="st0" cx="548.31" cy="1462.36" r=".3"/>
  <circle class="st0" cx="488.17" cy="1505.24" r=".3"/>
  <circle class="st0" cx="164.64" cy="1548.9" r=".3"/>
  <circle class="st0" cx="93.35" cy="1569.76" r=".3"/>
  <circle class="st0" cx="131.61" cy="1594.91" r=".3"/>
  <circle class="st0" cx="148.08" cy="1694.4" r=".3"/>
  <circle class="st0" cx="429.32" cy="2665.08" r="1.55"/>
  <circle class="st0" cx="343.01" cy="2457.81" r="1.55"/>
  <circle class="st0" cx="201.66" cy="1983.99" r="1.55"/>
  <circle class="st0" cx="512.8" cy="2303.28" r="1.55"/>
  <circle class="st0" cx="26.95" cy="2548.55" r="1.55"/>
  <circle class="st0" cx="107.64" cy="2067.63" r="1.55"/>
  <circle class="st0" cx="541.4" cy="2570.54" r="1.55"/>
  <circle class="st0" cx="454.22" cy="2647.84" r=".86"/>
  <circle class="st0" cx="216.48" cy="2663.53" r=".86"/>
  <circle class="st0" cx="447.43" cy="2616.32" r=".6"/>
  <circle class="st0" cx="507.47" cy="2608.21" r=".6"/>
  <circle class="st0" cx="446.05" cy="2516.13" r=".86"/>
  <circle class="st0" cx="194.03" cy="2355.44" r=".86"/>
  <circle class="st0" cx="542.95" cy="2326.97" r=".86"/>
  <circle class="st0" cx="543.81" cy="2073.6" r=".86"/>
  <circle class="st0" cx="398.65" cy="2478.35" r=".86"/>
  <circle class="st0" cx="72.42" cy="2477.49" r=".86"/>
  <circle class="st0" cx="341.46" cy="2277.76" r=".86"/>
  <circle class="st0" cx="323.9" cy="2273.66" r=".86"/>
  <circle class="st0" cx="64.9" cy="2285.17" r=".86"/>
  <circle class="st0" cx="9.3" cy="2260.89" r=".86"/>
  <circle class="st0" cx="378.65" cy="2577.56" r=".86"/>
  <circle class="st0" cx="121.42" cy="2616.32" r=".86"/>
  <circle class="st0" cx="141.96" cy="2595.43" r=".86"/>
  <circle class="st0" cx="546.66" cy="2665.08" r=".86"/>
  <circle class="st0" cx="559.89" cy="2584.9" r=".86"/>
  <circle class="st0" cx="412.52" cy="2658.1" r=".86"/>
  <circle class="st0" cx="308.62" cy="2635.64" r=".86"/>
  <circle class="st0" cx="173.06" cy="2643.55" r=".86"/>
  <circle class="st0" cx="519.86" cy="2517.8" r=".3"/>
  <circle class="st0" cx="96.18" cy="2260.59" r=".3"/>
  <circle class="st0" cx="19.24" cy="2399.97" r=".3"/>
  <circle class="st0" cx="148.4" cy="2127.19" r=".3"/>
  <circle class="st0" cx="135.6" cy="2122.8" r=".3"/>
  <circle class="st0" cx="572.07" cy="2637.1" r=".3"/>
  <circle class="st0" cx="576.46" cy="2466.33" r=".3"/>
  <circle class="st0" cx="511.04" cy="2677.57" r=".3"/>
  <circle class="st0" cx="455.08" cy="2504.17" r=".3"/>
  <circle class="st0" cx="559.89" cy="2462.25" r=".3"/>
  <circle class="st0" cx="491.39" cy="2636.5" r=".3"/>
  <circle class="st0" cx="347.78" cy="2579.75" r=".3"/>
  <circle class="st0" cx="224.41" cy="2543.48" r=".3"/>
  <circle class="st0" cx="120.56" cy="2671.4" r=".3"/>
  <circle class="st0" cx="33.12" cy="2663.53" r=".3"/>
  <circle class="st0" cx="5.24" cy="2615.46" r=".3"/>
  <circle class="st0" cx="237.61" cy="2657.24" r=".3"/>
  <circle class="st0" cx="148.7" cy="2637.4" r=".3"/>
  <circle class="st0" cx="354.37" cy="2648.71" r=".3"/>
  <circle class="st0" cx="371.39" cy="2503.87" r=".3"/>
  <circle class="st0" cx="371.09" cy="2356.3" r=".3"/>
  <circle class="st0" cx="289.51" cy="2486.28" r=".3"/>
  <circle class="st0" cx="289.81" cy="2445.24" r=".3"/>
  <circle class="st0" cx="252.23" cy="2479.21" r=".3"/>
  <circle class="st0" cx="224.11" cy="2389.65" r=".3"/>
  <circle class="st0" cx="52.48" cy="2314.73" r=".3"/>
  <circle class="st0" cx="-13.53" cy="2234.48" r=".3"/>
  <circle class="st0" cx="405.42" cy="2266.12" r=".3"/>
  <circle class="st0" cx="358.09" cy="2127.49" r=".3"/>
  <circle class="st0" cx="39.1" cy="2179.52" r=".3"/>
  <circle class="st0" cx="112.49" cy="2209.06" r=".3"/>
  <circle class="st0" cx="52.18" cy="2197.35" r=".3"/>
  <circle class="st0" cx="589.04" cy="2355.74" r=".3"/>
  <circle class="st0" cx="84.82" cy="2082.16" r=".3"/>
  <circle class="st0" cx="279.45" cy="2134.5" r=".3"/>
  <circle class="st0" cx="106.1" cy="2379.22" r=".3"/>
  <circle class="st0" cx="241.42" cy="2286.03" r=".3"/>
  <circle class="st0" cx="511.26" cy="2254.2" r=".3"/>
  <circle class="st0" cx="541.4" cy="2133.9" r=".3"/>
  <circle class="st0" cx="511.56" cy="2093.27" r=".3"/>
  <circle class="st0" cx="241.72" cy="2214.9" r=".3"/>
  <circle class="st0" cx="299.61" cy="2366.35" r=".3"/>
  <circle class="st0" cx="488.2" cy="2165.48" r=".3"/>
  <circle class="st0" cx="455.08" cy="2185.67" r=".3"/>
  <circle class="st0" cx="166.14" cy="2073.9" r=".3"/>
  <circle class="st0" cx="584.68" cy="2185.97" r=".3"/>
  <circle class="st0" cx="47.2" cy="2558.15" r=".3"/>
  <circle class="st0" cx="107.34" cy="2515.27" r=".3"/>
  <circle class="st0" cx="430.87" cy="2471.61" r=".3"/>
  <circle class="st0" cx="502.16" cy="2450.75" r=".3"/>
  <circle class="st0" cx="463.91" cy="2425.6" r=".3"/>
  <circle class="st0" cx="447.43" cy="2326.11" r=".3"/>
  <circle class="st0" cx="166.19" cy="2690.05" r="1.55"/>
  <circle class="st0" cx="252.5" cy="2897.32" r="1.55"/>
  <circle class="st0" cx="393.85" cy="3371.14" r="1.55"/>
  <circle class="st0" cx="82.71" cy="3051.85" r="1.55"/>
  <circle class="st0" cx="568.56" cy="2806.58" r="1.55"/>
  <circle class="st0" cx="487.87" cy="3287.5" r="1.55"/>
  <circle class="st0" cx="54.11" cy="2784.59" r="1.55"/>
  <circle class="st0" cx="141.3" cy="2707.29" r=".86"/>
  <circle class="st0" cx="379.03" cy="2691.6" r=".86"/>
  <circle class="st0" cx="148.08" cy="2738.81" r=".6"/>
  <circle class="st0" cx="88.04" cy="2746.92" r=".6"/>
  <circle class="st0" cx="149.46" cy="2839" r=".86"/>
  <circle class="st0" cx="401.48" cy="2999.69" r=".86"/>
  <circle class="st0" cx="52.56" cy="3028.16" r=".86"/>
  <circle class="st0" cx="51.7" cy="3281.53" r=".86"/>
  <circle class="st0" cx="196.86" cy="2876.78" r=".86"/>
  <circle class="st0" cx="523.09" cy="2877.64" r=".86"/>
  <circle class="st0" cx="254.05" cy="3077.37" r=".86"/>
  <circle class="st0" cx="271.62" cy="3081.47" r=".86"/>
  <circle class="st0" cx="530.61" cy="3069.96" r=".86"/>
  <circle class="st0" cx="586.21" cy="3094.24" r=".86"/>
  <circle class="st0" cx="216.87" cy="2777.57" r=".86"/>
  <circle class="st0" cx="474.09" cy="2738.81" r=".86"/>
  <circle class="st0" cx="453.55" cy="2759.7" r=".86"/>
  <circle class="st0" cx="48.85" cy="2690.05" r=".86"/>
  <circle class="st0" cx="35.63" cy="2770.23" r=".86"/>
  <circle class="st0" cx="182.99" cy="2697.03" r=".86"/>
  <circle class="st0" cx="286.9" cy="2719.49" r=".86"/>
  <circle class="st0" cx="422.45" cy="2711.58" r=".86"/>
  <circle class="st0" cx="75.65" cy="2837.33" r=".3"/>
  <circle class="st0" cx="499.33" cy="3094.54" r=".3"/>
  <circle class="st0" cx="576.28" cy="2955.16" r=".3"/>
  <circle class="st0" cx="447.11" cy="3227.94" r=".3"/>
  <circle class="st0" cx="459.91" cy="3232.33" r=".3"/>
  <circle class="st0" cx="23.45" cy="2718.03" r=".3"/>
  <circle class="st0" cx="19.05" cy="2888.8" r=".3"/>
  <circle class="st0" cx="84.47" cy="2677.57" r=".3"/>
  <circle class="st0" cx="140.44" cy="2850.96" r=".3"/>
  <circle class="st0" cx="35.63" cy="2892.88" r=".3"/>
  <circle class="st0" cx="104.12" cy="2718.63" r=".3"/>
  <circle class="st0" cx="247.73" cy="2775.38" r=".3"/>
  <circle class="st0" cx="371.1" cy="2811.65" r=".3"/>
  <circle class="st0" cx="474.95" cy="2683.73" r=".3"/>
  <circle class="st0" cx="562.39" cy="2691.6" r=".3"/>
  <circle class="st0" cx="590.27" cy="2739.67" r=".3"/>
  <circle class="st0" cx="357.91" cy="2697.89" r=".3"/>
  <circle class="st0" cx="446.81" cy="2717.73" r=".3"/>
  <circle class="st0" cx="241.14" cy="2706.43" r=".3"/>
  <circle class="st0" cx="224.12" cy="2851.26" r=".3"/>
  <circle class="st0" cx="224.42" cy="2998.83" r=".3"/>
  <circle class="st0" cx="306" cy="2868.85" r=".3"/>
  <circle class="st0" cx="305.7" cy="2909.89" r=".3"/>
  <circle class="st0" cx="343.29" cy="2875.92" r=".3"/>
  <circle class="st0" cx="371.4" cy="2965.48" r=".3"/>
  <circle class="st0" cx="543.03" cy="3040.4" r=".3"/>
  <circle class="st0" cx="609.04" cy="3120.65" r=".3"/>
  <circle class="st0" cx="190.09" cy="3089.01" r=".3"/>
  <circle class="st0" cx="237.43" cy="3227.64" r=".3"/>
  <circle class="st0" cx="556.41" cy="3175.61" r=".3"/>
  <circle class="st0" cx="483.02" cy="3146.07" r=".3"/>
  <circle class="st0" cx="543.33" cy="3157.79" r=".3"/>
  <circle class="st0" cx="6.47" cy="2999.39" r=".3"/>
  <circle class="st0" cx="510.69" cy="3272.98" r=".3"/>
  <circle class="st0" cx="316.07" cy="3220.63" r=".3"/>
  <circle class="st0" cx="489.42" cy="2975.91" r=".3"/>
  <circle class="st0" cx="354.09" cy="3069.1" r=".3"/>
  <circle class="st0" cx="84.26" cy="3100.93" r=".3"/>
  <circle class="st0" cx="54.11" cy="3221.23" r=".3"/>
  <circle class="st0" cx="83.96" cy="3261.86" r=".3"/>
  <circle class="st0" cx="353.79" cy="3140.23" r=".3"/>
  <circle class="st0" cx="295.9" cy="2988.78" r=".3"/>
  <circle class="st0" cx="107.31" cy="3189.65" r=".3"/>
  <circle class="st0" cx="140.44" cy="3169.46" r=".3"/>
  <circle class="st0" cx="429.37" cy="3281.23" r=".3"/>
  <circle class="st0" cx="10.83" cy="3169.16" r=".3"/>
  <circle class="st0" cx="548.31" cy="2796.98" r=".3"/>
  <circle class="st0" cx="488.17" cy="2839.86" r=".3"/>
  <circle class="st0" cx="164.64" cy="2883.52" r=".3"/>
  <circle class="st0" cx="93.35" cy="2904.38" r=".3"/>
  <circle class="st0" cx="131.61" cy="2929.54" r=".3"/>
  <circle class="st0" cx="148.08" cy="3029.02" r=".3"/>
  <circle class="st0" cx="180.51" cy="3341" r="1.55"/>
  <circle class="st0" cx="150.36" cy="3317.3" r=".86"/>
  <circle class="st0" cx="351.85" cy="3366.51" r=".86"/>
  <circle class="st0" cx="369.42" cy="3370.61" r=".86"/>
  <circle class="st0" cx="322.22" cy="3287.98" r=".3"/>
  <circle class="st0" cx="287.89" cy="3378.15" r=".3"/>
  <circle class="st0" cx="104.27" cy="3288.54" r=".3"/>
  <circle class="st0" cx="182.06" cy="3390.07" r=".3"/>
  <circle class="st0" cx="245.88" cy="3318.16" r=".3"/>
  <circle class="st0" cx="463.61" cy="3628.55" r="1.55"/>
  <circle class="st0" cx="343.01" cy="3792.43" r="1.55"/>
  <circle class="st0" cx="201.66" cy="3318.61" r="1.55"/>
  <circle class="st0" cx="512.8" cy="3637.9" r="1.55"/>
  <circle class="st0" cx="26.95" cy="3883.17" r="1.55"/>
  <circle class="st0" cx="107.64" cy="3402.25" r="1.55"/>
  <circle class="st0" cx="354.07" cy="3480.04" r="1.55"/>
  <circle class="st0" cx="454.22" cy="3982.47" r=".86"/>
  <circle class="st0" cx="216.48" cy="3998.15" r=".86"/>
  <circle class="st0" cx="447.43" cy="3950.94" r=".6"/>
  <circle class="st0" cx="507.47" cy="3942.83" r=".6"/>
  <circle class="st0" cx="446.05" cy="3850.75" r=".86"/>
  <circle class="st0" cx="194.03" cy="3690.06" r=".86"/>
  <circle class="st0" cx="542.95" cy="3661.59" r=".86"/>
  <circle class="st0" cx="543.81" cy="3408.22" r=".86"/>
  <circle class="st0" cx="398.65" cy="3812.97" r=".86"/>
  <circle class="st0" cx="72.42" cy="3812.11" r=".86"/>
  <circle class="st0" cx="341.46" cy="3612.38" r=".86"/>
  <circle class="st0" cx="323.9" cy="3608.28" r=".86"/>
  <circle class="st0" cx="64.9" cy="3619.79" r=".86"/>
  <circle class="st0" cx="9.3" cy="3595.51" r=".86"/>
  <circle class="st0" cx="378.65" cy="3912.18" r=".86"/>
  <circle class="st0" cx="121.42" cy="3950.94" r=".86"/>
  <circle class="st0" cx="141.96" cy="3930.05" r=".86"/>
  <circle class="st0" cx="546.66" cy="3999.7" r=".86"/>
  <circle class="st0" cx="559.89" cy="3919.52" r=".86"/>
  <circle class="st0" cx="412.52" cy="3992.72" r=".86"/>
  <circle class="st0" cx="308.62" cy="3970.26" r=".86"/>
  <circle class="st0" cx="173.06" cy="3978.17" r=".86"/>
  <circle class="st0" cx="519.86" cy="3852.42" r=".3"/>
  <circle class="st0" cx="96.18" cy="3595.21" r=".3"/>
  <circle class="st0" cx="19.24" cy="3734.59" r=".3"/>
  <circle class="st0" cx="148.4" cy="3461.81" r=".3"/>
  <circle class="st0" cx="135.6" cy="3457.42" r=".3"/>
  <circle class="st0" cx="572.07" cy="3971.72" r=".3"/>
  <circle class="st0" cx="576.46" cy="3800.95" r=".3"/>
  <circle class="st0" cx="511.04" cy="4012.19" r=".3"/>
  <circle class="st0" cx="455.08" cy="3838.79" r=".3"/>
  <circle class="st0" cx="559.89" cy="3796.87" r=".3"/>
  <circle class="st0" cx="491.39" cy="3971.12" r=".3"/>
  <circle class="st0" cx="347.78" cy="3914.37" r=".3"/>
  <circle class="st0" cx="224.41" cy="3878.1" r=".3"/>
  <circle class="st0" cx="120.56" cy="4006.02" r=".3"/>
  <circle class="st0" cx="33.12" cy="3998.15" r=".3"/>
  <circle class="st0" cx="5.24" cy="3950.08" r=".3"/>
  <circle class="st0" cx="237.61" cy="3991.86" r=".3"/>
  <circle class="st0" cx="148.7" cy="3972.02" r=".3"/>
  <circle class="st0" cx="354.37" cy="3983.33" r=".3"/>
  <circle class="st0" cx="371.39" cy="3838.49" r=".3"/>
  <circle class="st0" cx="371.09" cy="3690.92" r=".3"/>
  <circle class="st0" cx="289.51" cy="3820.9" r=".3"/>
  <circle class="st0" cx="289.81" cy="3779.86" r=".3"/>
  <circle class="st0" cx="252.23" cy="3813.83" r=".3"/>
  <circle class="st0" cx="224.11" cy="3724.27" r=".3"/>
  <circle class="st0" cx="52.48" cy="3649.35" r=".3"/>
  <circle class="st0" cx="-13.53" cy="3569.1" r=".3"/>
  <circle class="st0" cx="405.42" cy="3600.74" r=".3"/>
  <circle class="st0" cx="358.09" cy="3462.11" r=".3"/>
  <circle class="st0" cx="39.1" cy="3514.14" r=".3"/>
  <circle class="st0" cx="112.49" cy="3543.68" r=".3"/>
  <circle class="st0" cx="52.18" cy="3531.97" r=".3"/>
  <circle class="st0" cx="589.04" cy="3690.36" r=".3"/>
  <circle class="st0" cx="84.82" cy="3416.78" r=".3"/>
  <circle class="st0" cx="279.45" cy="3469.12" r=".3"/>
  <circle class="st0" cx="106.1" cy="3713.84" r=".3"/>
  <circle class="st0" cx="241.42" cy="3620.65" r=".3"/>
  <circle class="st0" cx="511.26" cy="3588.82" r=".3"/>
  <circle class="st0" cx="541.4" cy="3468.52" r=".3"/>
  <circle class="st0" cx="511.56" cy="3427.89" r=".3"/>
  <circle class="st0" cx="241.72" cy="3549.52" r=".3"/>
  <circle class="st0" cx="299.61" cy="3700.97" r=".3"/>
  <circle class="st0" cx="488.2" cy="3500.11" r=".3"/>
  <circle class="st0" cx="455.08" cy="3520.29" r=".3"/>
  <circle class="st0" cx="166.14" cy="3408.52" r=".3"/>
  <circle class="st0" cx="584.68" cy="3520.59" r=".3"/>
  <circle class="st0" cx="47.2" cy="3892.77" r=".3"/>
  <circle class="st0" cx="107.34" cy="3849.89" r=".3"/>
  <circle class="st0" cx="430.87" cy="3806.23" r=".3"/>
  <circle class="st0" cx="502.16" cy="3785.38" r=".3"/>
  <circle class="st0" cx="463.91" cy="3760.22" r=".3"/>
  <circle class="st0" cx="447.43" cy="3660.73" r=".3"/>
  <circle class="st0" cx="226.27" cy="3762.06" r="1.55"/>
  <circle class="st0" cx="377.79" cy="4264.46" r="1.55"/>
  <circle class="st0" cx="393.85" cy="4705.77" r="1.55"/>
  <circle class="st0" cx="82.71" cy="4386.48" r="1.55"/>
  <circle class="st0" cx="568.56" cy="4141.2" r="1.55"/>
  <circle class="st0" cx="487.87" cy="4622.12" r="1.55"/>
  <circle class="st0" cx="54.11" cy="4119.21" r="1.55"/>
  <circle class="st0" cx="141.3" cy="4041.91" r=".86"/>
  <circle class="st0" cx="379.03" cy="4026.22" r=".86"/>
  <circle class="st0" cx="148.08" cy="4073.43" r=".6"/>
  <circle class="st0" cx="88.04" cy="4081.54" r=".6"/>
  <circle class="st0" cx="149.46" cy="4173.62" r=".86"/>
  <circle class="st0" cx="401.48" cy="4334.31" r=".86"/>
  <circle class="st0" cx="52.56" cy="4362.78" r=".86"/>
  <circle class="st0" cx="51.7" cy="4616.15" r=".86"/>
  <circle class="st0" cx="196.86" cy="4211.4" r=".86"/>
  <circle class="st0" cx="523.09" cy="4212.26" r=".86"/>
  <circle class="st0" cx="254.05" cy="4411.99" r=".86"/>
  <circle class="st0" cx="271.62" cy="4416.09" r=".86"/>
  <circle class="st0" cx="530.61" cy="4404.58" r=".86"/>
  <circle class="st0" cx="586.21" cy="4428.86" r=".86"/>
  <circle class="st0" cx="216.87" cy="4112.19" r=".86"/>
  <circle class="st0" cx="474.09" cy="4073.43" r=".86"/>
  <circle class="st0" cx="453.55" cy="4094.32" r=".86"/>
  <circle class="st0" cx="48.85" cy="4024.67" r=".86"/>
  <circle class="st0" cx="35.63" cy="4104.85" r=".86"/>
  <circle class="st0" cx="182.99" cy="4031.65" r=".86"/>
  <circle class="st0" cx="286.9" cy="4054.11" r=".86"/>
  <circle class="st0" cx="422.45" cy="4046.21" r=".86"/>
  <circle class="st0" cx="75.65" cy="4171.95" r=".3"/>
  <circle class="st0" cx="499.33" cy="4429.17" r=".3"/>
  <circle class="st0" cx="576.28" cy="4289.78" r=".3"/>
  <circle class="st0" cx="447.11" cy="4562.56" r=".3"/>
  <circle class="st0" cx="459.91" cy="4566.95" r=".3"/>
  <circle class="st0" cx="23.45" cy="4052.65" r=".3"/>
  <circle class="st0" cx="19.05" cy="4223.42" r=".3"/>
  <circle class="st0" cx="84.47" cy="4012.19" r=".3"/>
  <circle class="st0" cx="140.44" cy="4185.58" r=".3"/>
  <circle class="st0" cx="35.63" cy="4227.5" r=".3"/>
  <circle class="st0" cx="104.12" cy="4053.25" r=".3"/>
  <circle class="st0" cx="247.73" cy="4110" r=".3"/>
  <circle class="st0" cx="371.1" cy="4146.27" r=".3"/>
  <circle class="st0" cx="474.95" cy="4018.35" r=".3"/>
  <circle class="st0" cx="562.39" cy="4026.22" r=".3"/>
  <circle class="st0" cx="590.27" cy="4074.29" r=".3"/>
  <circle class="st0" cx="357.91" cy="4032.51" r=".3"/>
  <circle class="st0" cx="446.81" cy="4052.35" r=".3"/>
  <circle class="st0" cx="241.14" cy="4041.05" r=".3"/>
  <circle class="st0" cx="224.12" cy="4185.88" r=".3"/>
  <circle class="st0" cx="224.42" cy="4333.45" r=".3"/>
  <circle class="st0" cx="306" cy="4203.47" r=".3"/>
  <circle class="st0" cx="305.7" cy="4244.52" r=".3"/>
  <circle class="st0" cx="343.29" cy="4210.54" r=".3"/>
  <circle class="st0" cx="371.4" cy="4300.1" r=".3"/>
  <circle class="st0" cx="543.03" cy="4375.03" r=".3"/>
  <circle class="st0" cx="609.04" cy="4455.27" r=".3"/>
  <circle class="st0" cx="190.09" cy="4423.63" r=".3"/>
  <circle class="st0" cx="237.43" cy="4562.26" r=".3"/>
  <circle class="st0" cx="556.41" cy="4510.23" r=".3"/>
  <circle class="st0" cx="483.02" cy="4480.7" r=".3"/>
  <circle class="st0" cx="543.33" cy="4492.41" r=".3"/>
  <circle class="st0" cx="6.47" cy="4334.01" r=".3"/>
  <circle class="st0" cx="510.69" cy="4607.6" r=".3"/>
  <circle class="st0" cx="316.07" cy="4555.25" r=".3"/>
  <circle class="st0" cx="489.42" cy="4310.54" r=".3"/>
  <circle class="st0" cx="354.09" cy="4403.72" r=".3"/>
  <circle class="st0" cx="84.26" cy="4435.55" r=".3"/>
  <circle class="st0" cx="54.11" cy="4555.85" r=".3"/>
  <circle class="st0" cx="83.96" cy="4596.48" r=".3"/>
  <circle class="st0" cx="353.79" cy="4474.85" r=".3"/>
  <circle class="st0" cx="295.9" cy="4323.4" r=".3"/>
  <circle class="st0" cx="107.31" cy="4524.27" r=".3"/>
  <circle class="st0" cx="140.44" cy="4504.09" r=".3"/>
  <circle class="st0" cx="429.37" cy="4615.85" r=".3"/>
  <circle class="st0" cx="10.83" cy="4503.78" r=".3"/>
  <circle class="st0" cx="548.31" cy="4131.6" r=".3"/>
  <circle class="st0" cx="488.17" cy="4174.48" r=".3"/>
  <circle class="st0" cx="164.64" cy="4218.14" r=".3"/>
  <circle class="st0" cx="93.35" cy="4239" r=".3"/>
  <circle class="st0" cx="131.61" cy="4264.16" r=".3"/>
  <circle class="st0" cx="148.08" cy="4363.64" r=".3"/>
  <circle class="st0" cx="429.32" cy="5334.32" r="1.55"/>
  <circle class="st0" cx="343.01" cy="5127.05" r="1.55"/>
  <circle class="st0" cx="201.66" cy="4653.23" r="1.55"/>
  <circle class="st0" cx="512.8" cy="4972.52" r="1.55"/>
  <circle class="st0" cx="26.95" cy="5217.79" r="1.55"/>
  <circle class="st0" cx="107.64" cy="4736.87" r="1.55"/>
  <circle class="st0" cx="541.4" cy="5239.78" r="1.55"/>
  <circle class="st0" cx="454.22" cy="5317.09" r=".86"/>
  <circle class="st0" cx="216.48" cy="5332.77" r=".86"/>
  <circle class="st0" cx="447.43" cy="5285.56" r=".6"/>
  <circle class="st0" cx="507.47" cy="5277.45" r=".6"/>
  <circle class="st0" cx="446.05" cy="5185.37" r=".86"/>
  <circle class="st0" cx="194.03" cy="5024.68" r=".86"/>
  <circle class="st0" cx="542.95" cy="4996.21" r=".86"/>
  <circle class="st0" cx="543.81" cy="4742.85" r=".86"/>
  <circle class="st0" cx="398.65" cy="5147.59" r=".86"/>
  <circle class="st0" cx="72.42" cy="5146.73" r=".86"/>
  <circle class="st0" cx="341.46" cy="4947" r=".86"/>
  <circle class="st0" cx="323.9" cy="4942.9" r=".86"/>
  <circle class="st0" cx="64.9" cy="4954.41" r=".86"/>
  <circle class="st0" cx="9.3" cy="4930.13" r=".86"/>
  <circle class="st0" cx="378.65" cy="5246.8" r=".86"/>
  <circle class="st0" cx="121.42" cy="5285.56" r=".86"/>
  <circle class="st0" cx="141.96" cy="5264.67" r=".86"/>
  <circle class="st0" cx="546.66" cy="5334.32" r=".86"/>
  <circle class="st0" cx="559.89" cy="5254.14" r=".86"/>
  <circle class="st0" cx="412.52" cy="5327.34" r=".86"/>
  <circle class="st0" cx="308.62" cy="5304.88" r=".86"/>
  <circle class="st0" cx="173.06" cy="5312.79" r=".86"/>
  <circle class="st0" cx="519.86" cy="5187.04" r=".3"/>
  <circle class="st0" cx="96.18" cy="4929.83" r=".3"/>
  <circle class="st0" cx="19.24" cy="5069.21" r=".3"/>
  <circle class="st0" cx="148.4" cy="4796.43" r=".3"/>
  <circle class="st0" cx="135.6" cy="4792.04" r=".3"/>
  <circle class="st0" cx="572.07" cy="5306.34" r=".3"/>
  <circle class="st0" cx="576.46" cy="5135.57" r=".3"/>
  <circle class="st0" cx="511.04" cy="5346.81" r=".3"/>
  <circle class="st0" cx="455.08" cy="5173.41" r=".3"/>
  <circle class="st0" cx="559.89" cy="5131.49" r=".3"/>
  <circle class="st0" cx="491.39" cy="5305.74" r=".3"/>
  <circle class="st0" cx="347.78" cy="5248.99" r=".3"/>
  <circle class="st0" cx="224.41" cy="5212.72" r=".3"/>
  <circle class="st0" cx="120.56" cy="5340.64" r=".3"/>
  <circle class="st0" cx="33.12" cy="5332.77" r=".3"/>
  <circle class="st0" cx="5.24" cy="5284.7" r=".3"/>
  <circle class="st0" cx="237.61" cy="5326.48" r=".3"/>
  <circle class="st0" cx="148.7" cy="5306.64" r=".3"/>
  <circle class="st0" cx="354.37" cy="5317.95" r=".3"/>
  <circle class="st0" cx="371.39" cy="5173.11" r=".3"/>
  <circle class="st0" cx="371.09" cy="5025.54" r=".3"/>
  <circle class="st0" cx="289.51" cy="5155.52" r=".3"/>
  <circle class="st0" cx="289.81" cy="5114.48" r=".3"/>
  <circle class="st0" cx="252.23" cy="5148.45" r=".3"/>
  <circle class="st0" cx="224.11" cy="5058.89" r=".3"/>
  <circle class="st0" cx="52.48" cy="4983.97" r=".3"/>
  <circle class="st0" cx="-13.53" cy="4903.73" r=".3"/>
  <circle class="st0" cx="405.42" cy="4935.36" r=".3"/>
  <circle class="st0" cx="358.09" cy="4796.73" r=".3"/>
  <circle class="st0" cx="39.1" cy="4848.76" r=".3"/>
  <circle class="st0" cx="112.49" cy="4878.3" r=".3"/>
  <circle class="st0" cx="52.18" cy="4866.59" r=".3"/>
  <circle class="st0" cx="589.04" cy="5024.98" r=".3"/>
  <circle class="st0" cx="84.82" cy="4751.4" r=".3"/>
  <circle class="st0" cx="279.45" cy="4803.74" r=".3"/>
  <circle class="st0" cx="106.1" cy="5048.46" r=".3"/>
  <circle class="st0" cx="241.42" cy="4955.27" r=".3"/>
  <circle class="st0" cx="511.26" cy="4923.44" r=".3"/>
  <circle class="st0" cx="541.4" cy="4803.14" r=".3"/>
  <circle class="st0" cx="511.56" cy="4762.51" r=".3"/>
  <circle class="st0" cx="241.72" cy="4884.14" r=".3"/>
  <circle class="st0" cx="299.61" cy="5035.59" r=".3"/>
  <circle class="st0" cx="488.2" cy="4834.73" r=".3"/>
  <circle class="st0" cx="455.08" cy="4854.91" r=".3"/>
  <circle class="st0" cx="166.14" cy="4743.15" r=".3"/>
  <circle class="st0" cx="584.68" cy="4855.21" r=".3"/>
  <circle class="st0" cx="47.2" cy="5227.39" r=".3"/>
  <circle class="st0" cx="107.34" cy="5184.51" r=".3"/>
  <circle class="st0" cx="430.87" cy="5140.85" r=".3"/>
  <circle class="st0" cx="502.16" cy="5120" r=".3"/>
  <circle class="st0" cx="463.91" cy="5094.84" r=".3"/>
  <circle class="st0" cx="447.43" cy="4995.35" r=".3"/>
  <circle class="st0" cx="166.19" cy="5359.29" r="1.55"/>
  <circle class="st0" cx="252.5" cy="5566.56" r="1.55"/>
  <circle class="st0" cx="393.85" cy="6040.39" r="1.55"/>
  <circle class="st0" cx="82.71" cy="5721.1" r="1.55"/>
  <circle class="st0" cx="568.56" cy="5475.82" r="1.55"/>
  <circle class="st0" cx="487.87" cy="5956.74" r="1.55"/>
  <circle class="st0" cx="54.11" cy="5453.83" r="1.55"/>
  <circle class="st0" cx="141.3" cy="5376.53" r=".86"/>
  <circle class="st0" cx="379.03" cy="5360.84" r=".86"/>
  <circle class="st0" cx="148.08" cy="5408.05" r=".6"/>
  <circle class="st0" cx="88.04" cy="5416.16" r=".6"/>
  <circle class="st0" cx="149.46" cy="5508.24" r=".86"/>
  <circle class="st0" cx="401.48" cy="5668.94" r=".86"/>
  <circle class="st0" cx="52.56" cy="5697.4" r=".86"/>
  <circle class="st0" cx="51.7" cy="5950.77" r=".86"/>
  <circle class="st0" cx="196.86" cy="5546.02" r=".86"/>
  <circle class="st0" cx="523.09" cy="5546.88" r=".86"/>
  <circle class="st0" cx="254.05" cy="5746.61" r=".86"/>
  <circle class="st0" cx="271.62" cy="5750.71" r=".86"/>
  <circle class="st0" cx="530.61" cy="5739.2" r=".86"/>
  <circle class="st0" cx="586.21" cy="5763.49" r=".86"/>
  <circle class="st0" cx="216.87" cy="5446.81" r=".86"/>
  <circle class="st0" cx="474.09" cy="5408.05" r=".86"/>
  <circle class="st0" cx="453.55" cy="5428.94" r=".86"/>
  <circle class="st0" cx="48.85" cy="5359.29" r=".86"/>
  <circle class="st0" cx="35.63" cy="5439.47" r=".86"/>
  <circle class="st0" cx="182.99" cy="5366.27" r=".86"/>
  <circle class="st0" cx="286.9" cy="5388.73" r=".86"/>
  <circle class="st0" cx="422.45" cy="5380.83" r=".86"/>
  <circle class="st0" cx="75.65" cy="5506.57" r=".3"/>
  <circle class="st0" cx="499.33" cy="5763.79" r=".3"/>
  <circle class="st0" cx="576.28" cy="5624.4" r=".3"/>
  <circle class="st0" cx="447.11" cy="5897.18" r=".3"/>
  <circle class="st0" cx="459.91" cy="5901.57" r=".3"/>
  <circle class="st0" cx="23.45" cy="5387.27" r=".3"/>
  <circle class="st0" cx="19.05" cy="5558.04" r=".3"/>
  <circle class="st0" cx="84.47" cy="5346.81" r=".3"/>
  <circle class="st0" cx="140.44" cy="5520.2" r=".3"/>
  <circle class="st0" cx="35.63" cy="5562.12" r=".3"/>
  <circle class="st0" cx="104.12" cy="5387.87" r=".3"/>
  <circle class="st0" cx="247.73" cy="5444.62" r=".3"/>
  <circle class="st0" cx="371.1" cy="5480.89" r=".3"/>
  <circle class="st0" cx="474.95" cy="5352.97" r=".3"/>
  <circle class="st0" cx="562.39" cy="5360.84" r=".3"/>
  <circle class="st0" cx="590.27" cy="5408.91" r=".3"/>
  <circle class="st0" cx="357.91" cy="5367.13" r=".3"/>
  <circle class="st0" cx="446.81" cy="5386.97" r=".3"/>
  <circle class="st0" cx="241.14" cy="5375.67" r=".3"/>
  <circle class="st0" cx="224.12" cy="5520.5" r=".3"/>
  <circle class="st0" cx="224.42" cy="5668.07" r=".3"/>
  <circle class="st0" cx="306" cy="5538.09" r=".3"/>
  <circle class="st0" cx="305.7" cy="5579.14" r=".3"/>
  <circle class="st0" cx="343.29" cy="5545.16" r=".3"/>
  <circle class="st0" cx="371.4" cy="5634.72" r=".3"/>
  <circle class="st0" cx="543.03" cy="5709.65" r=".3"/>
  <circle class="st0" cx="609.04" cy="5789.89" r=".3"/>
  <circle class="st0" cx="190.09" cy="5758.25" r=".3"/>
  <circle class="st0" cx="237.43" cy="5896.88" r=".3"/>
  <circle class="st0" cx="556.41" cy="5844.85" r=".3"/>
  <circle class="st0" cx="483.02" cy="5815.32" r=".3"/>
  <circle class="st0" cx="543.33" cy="5827.03" r=".3"/>
  <circle class="st0" cx="6.47" cy="5668.64" r=".3"/>
  <circle class="st0" cx="510.69" cy="5942.22" r=".3"/>
  <circle class="st0" cx="316.07" cy="5889.87" r=".3"/>
  <circle class="st0" cx="489.42" cy="5645.16" r=".3"/>
  <circle class="st0" cx="354.09" cy="5738.34" r=".3"/>
  <circle class="st0" cx="84.26" cy="5770.17" r=".3"/>
  <circle class="st0" cx="54.11" cy="5890.47" r=".3"/>
  <circle class="st0" cx="83.96" cy="5931.11" r=".3"/>
  <circle class="st0" cx="353.79" cy="5809.47" r=".3"/>
  <circle class="st0" cx="295.9" cy="5658.02" r=".3"/>
  <circle class="st0" cx="107.31" cy="5858.89" r=".3"/>
  <circle class="st0" cx="140.44" cy="5838.71" r=".3"/>
  <circle class="st0" cx="429.37" cy="5950.47" r=".3"/>
  <circle class="st0" cx="10.83" cy="5838.41" r=".3"/>
  <circle class="st0" cx="548.31" cy="5466.22" r=".3"/>
  <circle class="st0" cx="488.17" cy="5509.1" r=".3"/>
  <circle class="st0" cx="164.64" cy="5552.76" r=".3"/>
  <circle class="st0" cx="93.35" cy="5573.62" r=".3"/>
  <circle class="st0" cx="131.61" cy="5598.78" r=".3"/>
  <circle class="st0" cx="148.08" cy="5698.26" r=".3"/>
  <circle class="st0" cx="201.66" cy="5987.85" r="1.55"/>
  <circle class="st0" cx="107.64" cy="6071.49" r="1.55"/>
  <circle class="st0" cx="543.81" cy="6077.47" r=".86"/>
  <circle class="st0" cx="148.4" cy="6131.05" r=".3"/>
  <circle class="st0" cx="135.6" cy="6126.66" r=".3"/>
  <circle class="st0" cx="358.09" cy="6131.35" r=".3"/>
  <circle class="st0" cx="39.1" cy="6183.38" r=".3"/>
  <circle class="st0" cx="112.49" cy="6212.92" r=".3"/>
  <circle class="st0" cx="52.18" cy="6201.21" r=".3"/>
  <circle class="st0" cx="84.82" cy="6086.02" r=".3"/>
  <circle class="st0" cx="279.45" cy="6138.36" r=".3"/>
  <circle class="st0" cx="541.4" cy="6137.76" r=".3"/>
  <circle class="st0" cx="511.56" cy="6097.13" r=".3"/>
  <circle class="st0" cx="241.72" cy="6218.76" r=".3"/>
  <circle class="st0" cx="488.2" cy="6169.35" r=".3"/>
  <circle class="st0" cx="455.08" cy="6189.53" r=".3"/>
  <circle class="st0" cx="166.14" cy="6077.77" r=".3"/>
  <circle class="st0" cx="584.68" cy="6189.83" r=".3"/>
</svg>